<svg width="192" height="192" viewBox="0 0 192 192" xmlns="http://www.w3.org/2000/svg">
  <defs>
    <linearGradient id="gradient" x1="0%" y1="0%" x2="100%" y2="100%">
      <stop offset="0%" style="stop-color:#3b82f6;stop-opacity:1" />
      <stop offset="100%" style="stop-color:#1f2937;stop-opacity:1" />
    </linearGradient>
  </defs>
  
  <!-- Background circle -->
  <circle cx="96" cy="96" r="88" fill="url(#gradient)" stroke="#ffffff" stroke-width="4"/>
  
  <!-- Tree/Branch representation -->
  <!-- Main trunk -->
  <rect x="92" y="120" width="8" height="40" fill="#ffffff" rx="4"/>
  
  <!-- Main branches -->
  <g fill="#ffffff" stroke="#ffffff" stroke-width="2" stroke-linecap="round">
    <!-- Left main branch -->
    <path d="M96 110 Q80 90 65 85" fill="none"/>
    <circle cx="65" cy="85" r="4"/>
    
    <!-- Right main branch -->
    <path d="M96 110 Q112 90 127 85" fill="none"/>
    <circle cx="127" cy="85" r="4"/>
    
    <!-- Center top branch -->
    <path d="M96 110 Q96 85 96 70" fill="none"/>
    <circle cx="96" cy="70" r="4"/>
    
    <!-- Sub-branches -->
    <!-- Left sub-branches -->
    <path d="M65 85 Q55 75 50 70" fill="none" stroke-width="1.5"/>
    <circle cx="50" cy="70" r="2.5"/>
    
    <path d="M65 85 Q75 75 80 70" fill="none" stroke-width="1.5"/>
    <circle cx="80" cy="70" r="2.5"/>
    
    <!-- Right sub-branches -->
    <path d="M127 85 Q117 75 112 70" fill="none" stroke-width="1.5"/>
    <circle cx="112" cy="70" r="2.5"/>
    
    <path d="M127 85 Q137 75 142 70" fill="none" stroke-width="1.5"/>
    <circle cx="142" cy="70" r="2.5"/>
    
    <!-- Top sub-branches -->
    <path d="M96 70 Q88 60 85 55" fill="none" stroke-width="1.5"/>
    <circle cx="85" cy="55" r="2.5"/>
    
    <path d="M96 70 Q104 60 107 55" fill="none" stroke-width="1.5"/>
    <circle cx="107" cy="55" r="2.5"/>
  </g>
</svg>